<svg width="300" height="150" viewBox="0 0 300 150" fill="none" xmlns="http://www.w3.org/2000/svg">
<rect x="103" y="38" width="94" height="74" rx="7" fill="white" stroke="#D6D6D6" stroke-width="2"/>
<rect x="108" y="55" width="84" height="8" rx="4" fill="#D9D9D9"/>
<circle cx="113" cy="59" r="2" fill="#5D5D5D"/>
<circle cx="125" cy="59" r="2" fill="#5D5D5D"/>
<circle cx="137" cy="59" r="2" fill="#5D5D5D"/>
<circle cx="149" cy="59" r="2" fill="#5D5D5D"/>
<circle cx="161" cy="59" r="2" fill="#5D5D5D"/>
<circle cx="173" cy="59" r="2" fill="#5D5D5D"/>
<circle cx="185" cy="59" r="2" fill="#5D5D5D"/>
<circle cx="113" cy="69" r="2" fill="#D6D6D6"/>
<circle cx="125" cy="69" r="2" fill="#D6D6D6"/>
<circle cx="137" cy="69" r="2" fill="#D6D6D6"/>
<circle cx="149" cy="69" r="2" fill="#5D5D5D"/>
<circle cx="161" cy="69" r="2" fill="#5D5D5D"/>
<circle cx="173" cy="69" r="2" fill="#5D5D5D"/>
<circle cx="185" cy="69" r="2" fill="#5D5D5D"/>
<circle cx="113" cy="77" r="2" fill="#5D5D5D"/>
<circle cx="125" cy="77" r="2" fill="#5D5D5D"/>
<circle cx="137" cy="77" r="2" fill="#5D5D5D"/>
<circle cx="149" cy="77" r="2" fill="#5D5D5D"/>
<circle cx="161" cy="77" r="2" fill="#5D5D5D"/>
<circle cx="173" cy="77" r="2" fill="#5D5D5D"/>
<circle cx="185" cy="77" r="2" fill="#5D5D5D"/>
<circle cx="113" cy="85" r="2" fill="#5D5D5D"/>
<circle cx="125" cy="85" r="2" fill="#5D5D5D"/>
<circle cx="137" cy="85" r="2" fill="#5D5D5D"/>
<circle cx="149" cy="85" r="2" fill="#5D5D5D"/>
<circle cx="161" cy="85" r="2" fill="#5D5D5D"/>
<circle cx="173" cy="85" r="2" fill="#5D5D5D"/>
<circle cx="185" cy="85" r="2" fill="#5D5D5D"/>
<circle cx="113" cy="93" r="2" fill="#5D5D5D"/>
<circle cx="125" cy="93" r="2" fill="#5D5D5D"/>
<circle cx="137" cy="93" r="2" fill="#5D5D5D"/>
<circle cx="149" cy="93" r="2" fill="#5D5D5D"/>
<circle cx="161" cy="93" r="2" fill="#5D5D5D"/>
<circle cx="173" cy="93" r="2" fill="#5D5D5D"/>
<circle cx="185" cy="93" r="2" fill="#5D5D5D"/>
<circle cx="113" cy="101" r="2" fill="#5D5D5D"/>
<circle cx="125" cy="101" r="2" fill="#5D5D5D"/>
<circle cx="137" cy="101" r="2" fill="#5D5D5D"/>
<circle cx="149" cy="101" r="2" fill="#5D5D5D"/>
<circle cx="161" cy="101" r="2" fill="#5D5D5D"/>
<circle cx="173" cy="101" r="2" fill="#5D5D5D"/>
<circle cx="185" cy="101" r="2" fill="#D6D6D6"/>
<circle cx="161" cy="85" r="4" fill="#D6D6D6"/>
<circle cx="161" cy="85" r="3.42857" fill="currentColor"/>
<circle cx="161" cy="85" r="1.71429" fill="white"/>
<path d="M173 49L171 47L173 45" stroke="#5D5D5D" stroke-linecap="round"/>
<path d="M185 45L187 47L185 49" stroke="#5D5D5D" stroke-linecap="round"/>
<rect x="108" y="45" width="28" height="4" rx="2" fill="#5D5D5D"/>
</svg>
