<svg width="300" height="150" viewBox="0 0 300 150" fill="none" xmlns="http://www.w3.org/2000/svg">
<rect x="105.5" y="29.5" width="89" height="91" rx="7.5" fill="white" stroke="#D6D6D6"/>
<path d="M113 29.5H187C191.142 29.5 194.5 32.8579 194.5 37V78.5H105.5V37C105.5 32.8579 108.858 29.5 113 29.5Z" fill="#D6D6D6" stroke="#D6D6D6"/>
<path d="M189 86C189 87.1046 188.105 88 187 88H111C109.895 88 109 87.1046 109 86C109 84.8954 109.895 84 111 84H187C188.105 84 189 84.8954 189 86Z" fill="#5D5D5D"/>
<path d="M154 96C154 97.1046 153.105 98 152 98H111C109.895 98 109 97.1046 109 96C109 94.8954 109.895 94 111 94H152C153.105 94 154 94.8954 154 96Z" fill="#5D5D5D"/>
<rect x="163" y="103" width="26" height="12" rx="4" fill="currentColor"/>
<path d="M183 109C183 110.105 182.105 111 181 111H171C169.895 111 169 110.105 169 109C169 107.895 169.895 107 171 107H181C182.105 107 183 107.895 183 109Z" fill="white"/>
</svg>
