<svg width="300" height="150" viewBox="0 0 300 150" fill="none" xmlns="http://www.w3.org/2000/svg">
<rect x="95" y="73" width="30" height="4" rx="2" fill="#5D5D5D"/>
<rect x="128" y="73" width="10" height="4" rx="2" fill="#5D5D5D"/>
<path d="M83 79L83 71L87 71L89 73L89 79L83 79ZM86 74L86 72L84 72L84 78L88 78L88 74L86 74Z" fill="#5D5D5D"/>
<rect x="83" y="115" width="30" height="4" rx="2" fill="#5D5D5D"/>
<rect x="116" y="115" width="10" height="4" rx="2" fill="#5D5D5D"/>
<path d="M71 121L71 113L75 113L77 115L77 121L71 121ZM74 116L74 114L72 114L72 120L76 120L76 116L74 116Z" fill="#5D5D5D"/>
<rect x="95" y="94" width="21" height="4" rx="2" fill="#5D5D5D"/>
<path d="M90 93C90.5523 93 91 93.4477 91 94V98C91 98.5523 90.5523 99 90 99H84C83.4477 99 83 98.5523 83 98V93C83 92.4477 83.4477 92 84 92H86C86.5523 92 87 92.4477 87 93H90Z" fill="#5D5D5D"/>
<rect x="64" y="45" width="150" height="18" rx="4" fill="#E9E9E9"/>
<rect x="83" y="52" width="27" height="4" rx="2" fill="#5D5D5D"/>
<path d="M73 50C73.5523 50 74 50.4477 74 51H77C77.5523 51 78 51.4477 78 52V53H78.4756C79.1955 53 79.6793 53.738 79.3926 54.3984L78.5244 56.3984C78.3658 56.7636 78.0056 56.9999 77.6074 57H71C70.4823 57 70.0562 56.6067 70.0049 56.1025L70 56V51C70 50.4477 70.4477 50 71 50H73ZM71 54.6963L72.4736 53H77V52H71V54.6963Z" fill="#5D5D5D"/>
<rect x="83" y="31" width="23" height="4" rx="2" fill="#5D5D5D"/>
<path d="M77 30C77.5523 30 78 30.4477 78 31V35C78 35.5523 77.5523 36 77 36H71C70.4477 36 70 35.5523 70 35V30C70 29.4477 70.4477 29 71 29H73C73.5523 29 74 29.4477 74 30H77Z" fill="#5D5D5D"/>
<rect x="73" y="66" width="1" height="38" fill="#D9D9D9"/>
</svg>
