<svg width="300" height="150" viewBox="0 0 300 150" fill="none" xmlns="http://www.w3.org/2000/svg">
<rect x="42.5" y="44.5" width="214" height="61" rx="7.5" fill="#E9E9E9" stroke="#D6D6D6"/>
<path d="M250 55C250 56.1046 249.105 57 248 57H52C50.8954 57 50 56.1046 50 55C50 53.8954 50.8954 53 52 53H248C249.105 53 250 53.8954 250 55Z" fill="#5D5D5D"/>
<path d="M230 65C230 66.1046 229.105 67 228 67H52C50.8954 67 50 66.1046 50 65C50 63.8954 50.8954 63 52 63H228C229.105 63 230 63.8954 230 65Z" fill="#5D5D5D"/>
<path d="M200 75C200 76.1046 199.105 77 198 77H52C50.8954 77 50 76.1046 50 75C50 73.8954 50.8954 73 52 73H198C199.105 73 200 73.8954 200 75Z" fill="#5D5D5D"/>
<path d="M240 85C240 86.1046 239.105 87 238 87H52C50.8954 87 50 86.1046 50 85C50 83.8954 50.8954 83 52 83H238C239.105 83 240 83.8954 240 85Z" fill="#5D5D5D"/>
<path d="M160 95C160 96.1046 159.105 97 158 97H52C50.8954 97 50 96.1046 50 95C50 93.8954 50.8954 93 52 93H158C159.105 93 160 93.8954 160 95Z" fill="#5D5D5D"/>
</svg>
