<svg width="300" height="150" viewBox="0 0 300 150" fill="none" xmlns="http://www.w3.org/2000/svg">
<path d="M83 49H217C220.866 49 224 52.134 224 56V65C224 68.866 220.866 72 217 72H83C79.134 72 76 68.866 76 65V56L76.0088 55.6396C76.1963 51.9411 79.2549 49 83 49Z" fill="white" stroke="#D6D6D6" stroke-width="2"/>
<path d="M152 61C152 62.6569 150.657 64 149 64H101C99.3431 64 98 62.6569 98 61C98 59.3431 99.3431 58 101 58H149C150.657 58 152 59.3431 152 61Z" fill="#D6D6D6"/>
<path d="M83.8284 56.8284C85.3905 55.2663 87.9232 55.2663 89.4853 56.8284C90.9285 58.2717 91.037 60.5424 89.8133 62.1117C89.8213 62.1188 89.8311 62.124 89.8388 62.1317L91.253 63.5459C91.4483 63.7412 91.4483 64.0578 91.253 64.2531C91.0578 64.4483 90.7412 64.4483 90.5459 64.2531L89.1317 62.8388C89.124 62.8312 89.1181 62.822 89.111 62.814C87.5417 64.037 85.2715 63.9283 83.8284 62.4853C82.2663 60.9232 82.2663 58.3905 83.8284 56.8284ZM84.5355 57.5355C83.364 58.7071 83.364 60.6066 84.5355 61.7782C85.7071 62.9498 87.6066 62.9498 88.7782 61.7782C89.9497 60.6066 89.9497 58.7071 88.7782 57.5355C87.6066 56.364 85.7071 56.364 84.5355 57.5355Z" fill="#D6D6D6"/>
<path d="M83 78H217C220.866 78 224 81.134 224 85V94C224 97.866 220.866 101 217 101H83C79.134 101 76 97.866 76 94V85L76.0088 84.6396C76.1963 80.9411 79.2549 78 83 78Z" fill="white" stroke="#D6D6D6" stroke-width="2"/>
<path d="M142 89C142 90.6569 140.657 92 139 92H93C91.3431 92 90 90.6569 90 89C90 87.3431 91.3431 86 93 86H139C140.657 86 142 87.3431 142 89Z" fill="#D6D6D6"/>
<path d="M217 78C220.866 78 224 81.134 224 85V94C224 97.866 220.866 101 217 101H201V78H217Z" fill="currentColor" stroke="#D6D6D6" stroke-width="2"/>
<path d="M208.828 85.8284C210.391 84.2663 212.923 84.2663 214.485 85.8284C215.929 87.2717 216.037 89.5424 214.813 91.1117C214.821 91.1188 214.831 91.124 214.839 91.1317L216.253 92.5459C216.448 92.7412 216.448 93.0578 216.253 93.2531C216.058 93.4483 215.741 93.4483 215.546 93.2531L214.132 91.8388C214.124 91.8312 214.118 91.822 214.111 91.814C212.542 93.037 210.271 92.9283 208.828 91.4853C207.266 89.9232 207.266 87.3905 208.828 85.8284ZM209.536 86.5355C208.364 87.7071 208.364 89.6066 209.536 90.7782C210.707 91.9498 212.607 91.9498 213.778 90.7782C214.95 89.6066 214.95 87.7071 213.778 86.5355C212.607 85.364 210.707 85.364 209.536 86.5355Z" fill="white"/>
</svg>
