<svg width="300" height="150" viewBox="0 0 300 150" fill="none" xmlns="http://www.w3.org/2000/svg">
<path d="M69 57H231C234.866 57 238 60.134 238 64V86C238 89.866 234.866 93 231 93H69C65.134 93 62 89.866 62 86V64C62 60.134 65.134 57 69 57Z" fill="white" stroke="#D6D6D6" stroke-width="2"/>
<path d="M231 57C234.866 57 238 60.134 238 64V86C238 89.866 234.866 93 231 93H202V57H231Z" fill="#E9E9E9" stroke="#D6D6D6" stroke-width="2"/>
<path d="M69 93C65.134 93 62 89.866 62 86L62 64C62 60.134 65.134 57 69 57L98 57L98 93L69 93Z" fill="#E9E9E9" stroke="#D6D6D6" stroke-width="2"/>
<path d="M220.005 69C220.557 69.0002 221.005 69.4477 221.005 70L221.003 73.9941H225C225.552 73.9941 226 74.4419 226 74.9941C226 75.5464 225.552 75.9941 225 75.9941H221.002L221 79.9951C221 80.5473 220.552 80.9953 220 80.9951C219.448 80.9949 219 80.5464 219 79.9941L219.002 75.9941H215C214.448 75.9941 214 75.5464 214 74.9941C214 74.4419 214.448 73.9941 215 73.9941H219.003L219.005 69.999C219.005 69.4468 219.453 68.9998 220.005 69Z" fill="#5D5D5D"/>
<path d="M85 75C85.5523 75 86 75.4477 86 76C86 76.5523 85.5523 77 85 77H75C74.4477 77 74 76.5523 74 76C74 75.4477 74.4477 75 75 75H85Z" fill="#5D5D5D"/>
<text fill="#5D5D5D" xml:space="preserve" style="white-space: pre" font-family="Inria Sans" font-size="14" font-weight="bold" letter-spacing="0em"><tspan x="145.728" y="79.771">0</tspan></text>
</svg>
