<svg width="300" height="150" viewBox="0 0 300 150" fill="none" xmlns="http://www.w3.org/2000/svg">
<rect x="55.5" y="48.5" width="189" height="52" rx="7.5" fill="white" stroke="#D6D6D6"/>
<circle cx="66" cy="58" r="5" fill="#D6D6D6"/>
<path d="M146.795 58C146.795 59.6569 145.452 61 143.795 61H80C78.3431 61 77 59.6569 77 58C77 56.3431 78.3431 55 80 55H143.795C145.452 55 146.795 56.3431 146.795 58Z" fill="#5D5D5D"/>
<path d="M232 69C232 70.1046 231.105 71 230 71H79C77.8954 71 77 70.1046 77 69C77 67.8954 77.8954 67 79 67H230C231.105 67 232 67.8954 232 69Z" fill="#DDDDDD"/>
<path d="M164.924 79C164.924 80.1046 164.028 81 162.924 81H79C77.8954 81 77 80.1046 77 79C77 77.8954 77.8954 77 79 77H162.924C164.028 77 164.924 77.8954 164.924 79Z" fill="#DDDDDD"/>
<path d="M185.771 89C185.771 90.1046 184.876 91 183.771 91H79C77.8954 91 77 90.1046 77 89C77 87.8954 77.8954 87 79 87H183.771C184.876 87 185.771 87.8954 185.771 89Z" fill="#DDDDDD"/>
<path d="M66.3887 60.5645C66.3887 60.805 66.1648 61 65.8887 61C65.6125 61 65.3887 60.805 65.3887 60.5645L65.3887 57.6011C65.1662 57.557 65.0001 57.3846 65 57.1775C65 56.937 65.2239 56.742 65.5 56.742L66.3887 56.742L66.3887 60.5645Z" fill="white"/>
<ellipse cx="65.7778" cy="55.6774" rx="0.777778" ry="0.677439" transform="rotate(-180 65.7778 55.6774)" fill="white"/>
</svg>
