<svg width="300" height="150" viewBox="0 0 300 150" fill="none" xmlns="http://www.w3.org/2000/svg">
<path d="M231.5 56.5V101C231.5 105.142 228.142 108.5 224 108.5H75C70.8579 108.5 67.5 105.142 67.5 101V56.5H231.5Z" fill="white" stroke="#D6D6D6"/>
<path d="M75 41.5H224C228.142 41.5 231.5 44.8579 231.5 49V56.5H67.5V49C67.5 44.8579 70.8579 41.5 75 41.5Z" fill="#E9E9E9" stroke="#D6D6D6"/>
<path d="M124 49C124 50.6569 122.657 52 121 52H79C77.3431 52 76 50.6569 76 49C76 47.3431 77.3431 46 79 46H121C122.657 46 124 47.3431 124 49Z" fill="#5D5D5D"/>
<path d="M207.566 69C207.566 70.1046 206.671 71 205.566 71H83C81.8954 71 81 70.1046 81 69C81 67.8954 81.8954 67 83 67H205.566C206.671 67 207.566 67.8954 207.566 69Z" fill="#D6D6D6"/>
<path d="M199.705 79C199.705 80.1046 198.81 81 197.705 81H83C81.8954 81 81 80.1046 81 79C81 77.8954 81.8954 77 83 77H197.705C198.81 77 199.705 77.8954 199.705 79Z" fill="#D6D6D6"/>
<path d="M217 89.0005C217 90.1053 216.104 91.001 215 91.001H83.0005C81.8956 91.001 81 90.1053 81 89.0005C81 87.8956 81.8956 87 83.0005 87H215C216.104 87 217 87.8956 217 89.0005Z" fill="#D6D6D6"/>
<path d="M152.145 99.0005C152.145 100.105 151.249 101.001 150.144 101.001H83.0005C81.8957 101.001 81 100.105 81 99.0005C81 97.8956 81.8956 97 83.0005 97H150.144C151.249 97 152.145 97.8956 152.145 99.0005Z" fill="#D6D6D6"/>
<path d="M219 51L222 48L225 51" stroke="#5D5D5D" stroke-width="2" stroke-linecap="round"/>
</svg>
