<svg width="300" height="150" viewBox="0 0 300 150" fill="none" xmlns="http://www.w3.org/2000/svg">
<rect x="56" y="65" width="42" height="20" rx="4" fill="#D9D9D9"/>
<path d="M77 89L73.5359 84.5L80.4641 84.5L77 89Z" fill="#D9D9D9"/>
<path d="M90 75C90 76.1046 89.1046 77 88 77H66C64.8954 77 64 76.1046 64 75C64 73.8954 64.8954 73 66 73H88C89.1046 73 90 73.8954 90 75Z" fill="#5D5D5D"/>
<rect x="102" y="65" width="42" height="20" rx="4" fill="#D9D9D9"/>
<path d="M123 61L126.464 65.5L119.536 65.5L123 61Z" fill="#D9D9D9"/>
<path d="M136 75C136 76.1046 135.105 77 134 77H112C110.895 77 110 76.1046 110 75C110 73.8954 110.895 73 112 73H134C135.105 73 136 73.8954 136 75Z" fill="#5D5D5D"/>
<rect x="152" y="65" width="42" height="20" rx="4" fill="#D9D9D9"/>
<path d="M148 75L152.5 71.5359L152.5 78.4641L148 75Z" fill="#D9D9D9"/>
<path d="M186 75C186 76.1046 185.105 77 184 77H162C160.895 77 160 76.1046 160 75C160 73.8954 160.895 73 162 73H184C185.105 73 186 73.8954 186 75Z" fill="#5D5D5D"/>
<rect x="198" y="65" width="42" height="20" rx="4" fill="#D9D9D9"/>
<path d="M244 75L239.5 78.4641L239.5 71.5359L244 75Z" fill="#D9D9D9"/>
<path d="M232 75C232 76.1046 231.105 77 230 77H208C206.895 77 206 76.1046 206 75C206 73.8954 206.895 73 208 73H230C231.105 73 232 73.8954 232 75Z" fill="#5D5D5D"/>
</svg>
