<svg width="300" height="150" viewBox="0 0 300 150" fill="none" xmlns="http://www.w3.org/2000/svg">
<path d="M93.1035 65.0762C93.4704 64.3335 94.5296 64.3335 94.8965 65.0762L96.752 68.8369C97.189 69.7223 98.0346 70.3356 99.0117 70.4775L103.161 71.0811C103.981 71.2006 104.308 72.2077 103.715 72.7861L100.712 75.7129C100.005 76.402 99.6828 77.3951 99.8496 78.3682L100.559 82.501C100.699 83.3178 99.841 83.9412 99.1074 83.5557L95.3965 81.6045C94.5225 81.145 93.4775 81.145 92.6035 81.6045L88.8926 83.5557C88.159 83.9412 87.3013 83.3178 87.4414 82.501L88.1504 78.3682C88.3172 77.3951 87.995 76.402 87.2881 75.7129L84.2852 72.7861C83.6919 72.2077 84.0191 71.2006 84.8389 71.0811L88.9883 70.4775C89.9654 70.3356 90.811 69.7223 91.248 68.8369L93.1035 65.0762Z" fill="#F8B825" stroke="#EE9033" stroke-width="2"/>
<path d="M121.104 65.0762C121.47 64.3335 122.53 64.3335 122.897 65.0762L124.752 68.8369C125.189 69.7223 126.035 70.3356 127.012 70.4775L131.161 71.0811C131.981 71.2006 132.308 72.2077 131.715 72.7861L128.712 75.7129C128.005 76.402 127.683 77.3951 127.85 78.3682L128.559 82.501C128.699 83.3178 127.841 83.9412 127.107 83.5557L123.397 81.6045C122.523 81.145 121.478 81.145 120.604 81.6045L116.893 83.5557C116.159 83.9412 115.301 83.3178 115.441 82.501L116.15 78.3682C116.317 77.3951 115.995 76.402 115.288 75.7129L112.285 72.7861C111.692 72.2077 112.019 71.2006 112.839 71.0811L116.988 70.4775C117.965 70.3356 118.811 69.7223 119.248 68.8369L121.104 65.0762Z" fill="#F8B825" stroke="#EE9033" stroke-width="2"/>
<path d="M149.104 65.0762C149.47 64.3335 150.53 64.3335 150.896 65.0762L152.752 68.8369C153.189 69.7223 154.035 70.3356 155.012 70.4775L159.161 71.0811C159.981 71.2006 160.308 72.2077 159.715 72.7861L156.712 75.7129C156.005 76.402 155.683 77.3951 155.85 78.3682L156.559 82.501C156.699 83.3178 155.841 83.9412 155.107 83.5557L151.396 81.6045C150.523 81.145 149.477 81.145 148.604 81.6045L144.893 83.5557C144.159 83.9412 143.301 83.3178 143.441 82.501L144.15 78.3682C144.317 77.3951 143.995 76.402 143.288 75.7129L140.285 72.7861C139.692 72.2077 140.019 71.2006 140.839 71.0811L144.988 70.4775C145.965 70.3356 146.811 69.7223 147.248 68.8369L149.104 65.0762Z" fill="#F8B825" stroke="#EE9033" stroke-width="2"/>
<path d="M177.104 65.0762C177.47 64.3335 178.53 64.3335 178.896 65.0762L180.752 68.8369C181.189 69.7223 182.035 70.3356 183.012 70.4775L187.161 71.0811C187.981 71.2006 188.308 72.2077 187.715 72.7861L184.712 75.7129C184.005 76.402 183.683 77.3951 183.85 78.3682L184.559 82.501C184.699 83.3178 183.841 83.9412 183.107 83.5557L179.396 81.6045C178.523 81.145 177.477 81.145 176.604 81.6045L172.893 83.5557C172.159 83.9412 171.301 83.3178 171.441 82.501L172.15 78.3682C172.317 77.3951 171.995 76.402 171.288 75.7129L168.285 72.7861C167.692 72.2077 168.019 71.2006 168.839 71.0811L172.988 70.4775C173.965 70.3356 174.811 69.7223 175.248 68.8369L177.104 65.0762Z" fill="#E9E9E9" stroke="#D6D6D6" stroke-width="2"/>
<path d="M205.104 65.0762C205.47 64.3335 206.53 64.3335 206.896 65.0762L208.752 68.8369C209.189 69.7223 210.035 70.3356 211.012 70.4775L215.161 71.0811C215.981 71.2006 216.308 72.2077 215.715 72.7861L212.712 75.7129C212.005 76.402 211.683 77.3951 211.85 78.3682L212.559 82.501C212.699 83.3178 211.841 83.9412 211.107 83.5557L207.396 81.6045C206.523 81.145 205.477 81.145 204.604 81.6045L200.893 83.5557C200.159 83.9412 199.301 83.3178 199.441 82.501L200.15 78.3682C200.317 77.3951 199.995 76.402 199.288 75.7129L196.285 72.7861C195.692 72.2077 196.019 71.2006 196.839 71.0811L200.988 70.4775C201.965 70.3356 202.811 69.7223 203.248 68.8369L205.104 65.0762Z" fill="#E9E9E9" stroke="#D6D6D6" stroke-width="2"/>
</svg>
