<svg width="300" height="150" viewBox="0 0 300 150" fill="none" xmlns="http://www.w3.org/2000/svg">
<path d="M45 48C45 43.5817 48.5817 40 53 40H247C251.418 40 255 43.5817 255 48V60H45V48Z" fill="#D9D9D9"/>
<rect x="57" y="48" width="44" height="4" rx="2" fill="#5D5D5D"/>
<rect x="117" y="48" width="60" height="4" rx="2" fill="#5D5D5D"/>
<rect x="193" y="48" width="49" height="4" rx="2" fill="#5D5D5D"/>
<rect x="45" y="62" width="210" height="16" fill="#E9E9E9"/>
<rect x="57" y="68" width="44" height="4" rx="2" fill="#5D5D5D"/>
<rect x="117" y="68" width="60" height="4" rx="2" fill="#5D5D5D"/>
<rect x="193" y="68" width="49" height="4" rx="2" fill="#5D5D5D"/>
<rect x="45" y="78" width="210" height="16" fill="#E9E9E9"/>
<rect x="57" y="84" width="44" height="4" rx="2" fill="#5D5D5D"/>
<rect x="117" y="84" width="60" height="4" rx="2" fill="#5D5D5D"/>
<rect x="193" y="84" width="49" height="4" rx="2" fill="#5D5D5D"/>
<path d="M45 94H255V102C255 106.418 251.418 110 247 110H53C48.5817 110 45 106.418 45 102V94Z" fill="#E9E9E9"/>
<rect x="57" y="100" width="44" height="4" rx="2" fill="#5D5D5D"/>
<rect x="117" y="100" width="60" height="4" rx="2" fill="#5D5D5D"/>
<rect x="193" y="100" width="49" height="4" rx="2" fill="#5D5D5D"/>
</svg>
