<svg width="300" height="150" viewBox="0 0 300 150" fill="none" xmlns="http://www.w3.org/2000/svg">
<rect x="52" y="65" width="42" height="20" rx="4" fill="#D9D9D9"/>
<path d="M86 75C86 76.1046 85.1046 77 84 77H61C59.8954 77 59 76.1046 59 75C59 73.8954 59.8954 73 61 73H84C85.1046 73 86 73.8954 86 75Z" fill="#5D5D5D"/>
<rect x="148" y="65" width="42" height="20" rx="10" fill="#D9D9D9"/>
<path d="M183 75C183 76.1046 182.105 77 181 77H158C156.895 77 156 76.1046 156 75C156 73.8954 156.895 73 158 73H181C182.105 73 183 73.8954 183 75Z" fill="#5D5D5D"/>
<rect x="100" y="65" width="42" height="20" rx="4" fill="currentColor"/>
<path d="M134 75C134 76.1046 133.105 77 132 77H110C108.895 77 108 76.1046 108 75C108 73.8954 108.895 73 110 73H132C133.105 73 134 73.8954 134 75Z" fill="white"/>
<rect x="196" y="65" width="52" height="20" rx="4" fill="#D9D9D9"/>
<path d="M231 75C231 76.1046 230.105 77 229 77H206C204.895 77 204 76.1046 204 75C204 73.8954 204.895 73 206 73H229C230.105 73 231 73.8954 231 75Z" fill="#5D5D5D"/>
<path d="M242.425 72.4749C242.62 72.6701 242.62 72.9867 242.425 73.182L240.657 74.9497L242.425 76.7175C242.62 76.9128 242.62 77.2294 242.425 77.4246C242.229 77.6199 241.913 77.6199 241.718 77.4246L239.95 75.6569L238.182 77.4246C237.987 77.6199 237.67 77.6199 237.475 77.4246C237.28 77.2294 237.28 76.9128 237.475 76.7175L239.243 74.9497L237.475 73.182C237.28 72.9867 237.28 72.6701 237.475 72.4749C237.67 72.2796 237.987 72.2796 238.182 72.4749L239.95 74.2426L241.718 72.4749C241.913 72.2796 242.229 72.2796 242.425 72.4749Z" fill="#5D5D5D"/>
</svg>
