<svg width="300" height="150" viewBox="0 0 300 150" fill="none" xmlns="http://www.w3.org/2000/svg">
<rect x="78" y="43" width="144" height="20" rx="4" fill="currentColor"/>
<circle cx="87.5" cy="53.5" r="3.5" fill="white"/>
<path d="M88 55.5228C88 55.7863 87.8157 56 87.5883 56C87.3609 56 87.1765 55.7863 87.1765 55.5228L87.1765 53.8692C87.0698 53.783 87 53.6394 87 53.4772C87.0001 53.2138 87.1844 53 87.4117 53L88 53L88 55.5228Z" fill="currentColor"/>
<ellipse cx="87.5" cy="51.5" rx="0.5" ry="0.5" transform="rotate(-180 87.5 51.5)" fill="currentColor"/>
<rect x="97" y="51" width="102" height="4" rx="2" fill="white"/>
<path d="M214.657 52.9497L216.778 55.0711L216.071 55.7782L213.95 53.6569L211.828 55.7782L211.121 55.0711L213.243 52.9497L211.121 50.8284L211.828 50.1213L213.95 52.2426L216.071 50.1213L216.778 50.8284L214.657 52.9497Z" fill="white"/>
<rect x="78" y="65" width="144" height="20" rx="4" fill="#E9E9E9"/>
<circle cx="87.5" cy="74.5" r="3.5" fill="#5D5D5D"/>
<path d="M88 76.5228C88 76.7863 87.8157 77 87.5883 77C87.3609 77 87.1765 76.7863 87.1765 76.5228L87.1765 74.8692C87.0698 74.783 87 74.6394 87 74.4772C87.0001 74.2138 87.1844 74 87.4117 74L88 74L88 76.5228Z" fill="#E9E9E9"/>
<ellipse cx="87.5" cy="72.5" rx="0.5" ry="0.5" transform="rotate(-180 87.5 72.5)" fill="#E9E9E9"/>
<rect x="98" y="73" width="102" height="4" rx="2" fill="#5D5D5D"/>
<path d="M214.657 74.9497L216.778 77.0711L216.071 77.7782L213.95 75.6569L211.828 77.7782L211.121 77.0711L213.243 74.9497L211.121 72.8284L211.828 72.1213L213.95 74.2426L216.071 72.1213L216.778 72.8284L214.657 74.9497Z" fill="#5D5D5D"/>
<rect x="78" y="87" width="144" height="20" rx="4" fill="#E9E9E9"/>
<path d="M78 91C78 88.7909 79.7909 87 82 87H98V107H82C79.7909 107 78 105.209 78 103V91Z" fill="#5D5D5D"/>
<circle cx="87.5" cy="96.5" r="3.5" fill="white"/>
<path d="M88 98.5228C88 98.7863 87.8157 99 87.5883 99C87.3609 99 87.1765 98.7863 87.1765 98.5228L87.1765 96.8692C87.0698 96.783 87 96.6394 87 96.4772C87.0001 96.2138 87.1844 96 87.4117 96L88 96L88 98.5228Z" fill="#5D5D5D"/>
<ellipse cx="87.5" cy="94.5" rx="0.5" ry="0.5" transform="rotate(-180 87.5 94.5)" fill="#5D5D5D"/>
<rect x="103" y="96" width="102" height="4" rx="2" fill="#5D5D5D"/>
</svg>
